# xmcd
#
# Track frame offsets: 
#        150
#        18527
#        34050
#        58202
#        83697
#        97500
#        124720
#        143477
#        158027
#        171297
#
# Disc length: 2398 seconds
#
# Revision: 0
# Processed by: cddbd v1.5.1PL0 Copyright (c) Steve Scherf et al.
# Submitted via: ExactAudioCopy v0.95b2
#
DISCID=72095c0a
DTITLE=Herman van Vliet - Eigen bewerkingen, psalmen en gezangen
DYEAR=1900
DGENRE=
TTITLE0=Herman van Vliet - (Eigen bewerkingen, psalmen en gezangen) [0
TTITLE0=1] - Fantasie Gezang 174
TTITLE1=Herman van Vliet - (Eigen bewerkingen, psalmen en gezangen) [0
TTITLE1=2] - Inleiding en koraal psalm 119
TTITLE2=Herman van Vliet - (Eigen bewerkingen, psalmen en gezangen) [0
TTITLE2=3] - Toccatine, fuga en koraal psalm 75
TTITLE3=Herman van Vliet - (Eigen bewerkingen, psalmen en gezangen) [0
TTITLE3=4] - Meditatie psalm 17
TTITLE4=Herman van Vliet - (Eigen bewerkingen, psalmen en gezangen) [0
TTITLE4=5] - Preludium en koraal psalm 138
TTITLE5=Herman van Vliet - (Eigen bewerkingen, psalmen en gezangen) [0
TTITLE5=6] - Canonisch voorspel en koraal psalm 56
TTITLE6=Herman van Vliet - (Eigen bewerkingen, psalmen en gezangen) [0
TTITLE6=7] - Orgelkoraal psalm 130
TTITLE7=Herman van Vliet - (Eigen bewerkingen, psalmen en gezangen) [0
TTITLE7=8] - Fuga en koraal psalm 33
TTITLE8=Herman van Vliet - (Eigen bewerkingen, psalmen en gezangen) [0
TTITLE8=9] - Dubbelcanon psalm 27
TTITLE9=Herman van Vliet - (Eigen bewerkingen, psalmen en gezangen) [1
TTITLE9=0] - Voorspel en koraal gezang 105
EXTD=
EXTT0=
EXTT1=
EXTT2=
EXTT3=
EXTT4=
EXTT5=
EXTT6=
EXTT7=
EXTT8=
EXTT9=
PLAYORDER=
